<svg width="24" height="24" viewBox="0 0 24 24" fill="none" xmlns="http://www.w3.org/2000/svg">
<g clip-path="url('#clip0_32_2')">
<circle cx="12" cy="12" r="11.5" fill="#0C1020" stroke="black"></circle>
<rect x="4.5" y="4.5" width="15" height="15" rx="2.5" fill="#20274A" stroke="black"></rect>
<path d="M12.0252 6.73544L10.2986 6.73544C10.2494 6.4523 10.1586 6.20147 10.0263 5.98296C9.89394 5.76136 9.72928 5.57363 9.53231 5.41975C9.33534 5.26586 9.11068 5.15045 8.85831 5.07351C8.60902 4.99349 8.33972 4.95348 8.05043 4.95348C7.53646 4.95348 7.08097 5.08274 6.68395 5.34126C6.28693 5.59671 5.97609 5.97218 5.75142 6.46768C5.52675 6.96011 5.41442 7.56179 5.41442 8.27273C5.41442 8.99598 5.52675 9.60535 5.75142 10.1009C5.97916 10.5933 6.29001 10.9657 6.68395 11.218C7.08096 11.4673 7.53492 11.592 8.04581 11.592C8.32895 11.592 8.59363 11.555 8.83984 11.4812C9.08913 11.4042 9.31226 11.2919 9.50923 11.1442C9.70928 10.9964 9.87701 10.8149 10.0124 10.5994C10.1509 10.384 10.2463 10.1378 10.2986 9.8608L12.0252 9.87003C11.9606 10.3194 11.8205 10.741 11.6051 11.1349C11.3928 11.5289 11.1142 11.8767 10.7695 12.1783C10.4248 12.4768 10.0217 12.7107 9.56001 12.88C9.09836 13.0462 8.58594 13.1293 8.02273 13.1293C7.19176 13.1293 6.45005 12.9369 5.79758 12.5522C5.14512 12.1675 4.63115 11.612 4.25568 10.8857C3.88021 10.1593 3.69247 9.28835 3.69247 8.27273C3.69247 7.25402 3.88175 6.38305 4.2603 5.6598C4.63885 4.93348 5.15436 4.37796 5.80682 3.99325C6.45928 3.60855 7.19792 3.41619 8.02273 3.41619C8.54901 3.41619 9.03835 3.49006 9.49077 3.63778C9.94318 3.78551 10.3464 4.00249 10.7003 4.28871C11.0542 4.57185 11.3451 4.91963 11.5728 5.33203C11.8036 5.74136 11.9544 6.20916 12.0252 6.73544Z" fill="#80C24A"></path>
<path d="M18.2663 13.5646C18.1894 13.3153 18.0832 13.0922 17.9478 12.8952C17.8155 12.6952 17.6554 12.5244 17.4677 12.3828C17.283 12.2412 17.0707 12.1351 16.8306 12.0643C16.5906 11.9904 16.329 11.9535 16.0458 11.9535C15.538 11.9535 15.0856 12.0812 14.6886 12.3366C14.2915 12.5921 13.9792 12.9676 13.7514 13.4631C13.5268 13.9555 13.4144 14.5556 13.4144 15.2635C13.4144 15.9775 13.5268 16.5823 13.7514 17.0778C13.9761 17.5733 14.2885 17.9503 14.6886 18.2088C15.0887 18.4643 15.5534 18.592 16.0827 18.592C16.5629 18.592 16.9783 18.4996 17.3292 18.315C17.6831 18.1303 17.9555 17.8687 18.1463 17.5302C18.3371 17.1886 18.4325 16.7885 18.4325 16.3299L18.8203 16.3899H16.2536V15.0511H20.0898V16.1868C20.0898 16.9962 19.9175 17.6964 19.5728 18.2873C19.2281 18.8782 18.7541 19.3337 18.1509 19.6538C17.5477 19.9708 16.8552 20.1293 16.0735 20.1293C15.2025 20.1293 14.4377 19.9338 13.7791 19.543C13.1236 19.149 12.6112 18.5904 12.2418 17.8672C11.8756 17.1409 11.6925 16.2791 11.6925 15.282C11.6925 14.5187 11.8002 13.837 12.0156 13.2369C12.2341 12.6367 12.5388 12.1274 12.9297 11.7088C13.3205 11.2872 13.7791 10.9671 14.3054 10.7486C14.8317 10.527 15.4041 10.4162 16.0227 10.4162C16.5459 10.4162 17.0337 10.4931 17.4862 10.647C17.9386 10.7978 18.3402 11.0133 18.6911 11.2933C19.045 11.5734 19.3358 11.9058 19.5636 12.2905C19.7913 12.6752 19.9406 13.0999 20.0114 13.5646H18.2663Z" fill="#80C24A"></path>
</g>
<defs>
<clipPath id="clip0_32_2">
<rect width="24" height="24" fill="white"></rect>
</clipPath>
</defs>
</svg>
