<svg width="70" height="83" viewBox="0 0 70 83" fill="none" xmlns="http://www.w3.org/2000/svg">
<g id="collin-copy" clip-path="url(#clip0_70_217)">
<g id="arm-1">
<path id="Rectangle 237" d="M63.6948 41L61.9746 43.5505L64.2778 50.9079L65.8359 48.2812L63.6948 41Z" fill="#D3C0C0"/>
<path id="Rectangle 238" d="M63.6948 41L48.1313 45.9405L48.727 47.8433L62.0277 43.5883L63.6948 41Z" fill="#846E6E"/>
<path id="Rectangle 234" d="M61.9816 43.5698L45.7062 48.6878L47.9952 56L64.3448 50.8818L61.9816 43.5698Z" fill="#BCA3A3"/>
</g>
<g id="shirt">
<path id="Rectangle 226" d="M13.6996 40.5L20.6996 43V62L13.6996 55V40.5Z" fill="#274924"/>
<rect id="Rectangle 225" x="20.6996" y="43" width="28" height="19" fill="#396C34"/>
</g>
<g id="pants">
<path id="Rectangle 231" d="M13.6996 57L20.6996 62V78.5L13.6996 71.5V57Z" fill="#413125"/>
<rect id="Rectangle 230" x="20.6996" y="67" width="28" height="11" fill="#5C4535"/>
<rect id="Rectangle 229" x="35.6996" y="73" width="10" height="2" transform="rotate(90 35.6996 73)" fill="#252121"/>
</g>
<g id="head">
<path id="Rectangle 227" d="M2 1L20.6996 3.80493V41L2 34.1127V1Z" fill="#8A7575"/>
<g id="face">
<rect id="Rectangle 206" x="20.6996" y="3" width="40" height="40" fill="#BCA3A3"/>
<g id="glasses">
<rect id="Rectangle 209" x="44.6996" y="16" width="8" height="8" fill="black"/>
<rect id="Rectangle 208" x="27.6996" y="16" width="8" height="8" fill="black"/>
<path id="Rectangle 224" d="M20.7081 19H61V21H20.7081L20.7081 20L20.7081 19Z" fill="black"/>
<path id="Rectangle 225_2" d="M11.7566 17.3691L20.7056 19L21.5 19L21.5 20L21.5 21L20.7056 21L11.8023 19.3828L11.7566 17.3691Z" fill="black"/>
</g>
<g id="hair">
<path id="Polygon 3" d="M32.199 0L60.5 3V3.5L21 4L9.5 2L0.699585 0H32.199Z" fill="#452929"/>
<path id="Rectangle 230_2" d="M0.699219 0L12.6992 1.99998V38L0.699219 35.9176V0Z" fill="#231414"/>
<path id="Rectangle 228" d="M1 0.052002L20.7028 3L21.5 3V5.5V8H20.7028L1 4.552V0.052002Z" fill="#231414"/>
<path id="Rectangle 211" d="M20.8265 3H61V8H20.8265V3Z" fill="#311C1C"/>
</g>
<g id="beard">
<path id="Rectangle 218" d="M46.7013 33H61V41H46.7013V33Z" fill="#311C1C"/>
<path id="Rectangle 223" d="M30.6996 29.5H33.6996V34.3049H30.6996V29.5Z" fill="#311C1C"/>
<path id="Rectangle 222" d="M46.6996 29H49.6996V34.3743H46.6996V29Z" fill="#311C1C"/>
<path id="Rectangle 216" d="M20.9231 39H61V43.0261H20.9231V39Z" fill="#311C1C"/>
<path id="Rectangle 217" d="M19.5 33H33.6996V41.5V43.0148L27 43H20.6689L19.5 41.5V33Z" fill="#311C1C"/>
<rect id="Rectangle 221" x="49.6996" y="27" width="4" height="19" transform="rotate(90 49.6996 27)" fill="#311C1C"/>
<path id="Rectangle 210" d="M37.6996 35H42.6996V40.5H37.6996V35Z" fill="#311C1C"/>
<path id="Rectangle 229_2" d="M0.699585 27L20.6996 33V43.0309L0.699585 35.9485V27Z" fill="#231414"/>
</g>
<g id="brows">
<rect id="Rectangle 215" x="44.6996" y="11" width="8" height="3" fill="#311C1C"/>
<rect id="Rectangle 214" x="27.6996" y="11" width="8" height="3" fill="#311C1C"/>
</g>
</g>
</g>
<g id="belt">
<rect id="Rectangle 228_2" x="20.6996" y="62" width="28" height="5" fill="#1B1111"/>
<path id="Rectangle 230_3" d="M13.6996 55L20.6996 62V67L13.6996 60V55Z" fill="black"/>
</g>
<g id="shoes">
<rect id="Rectangle 232" x="20.6996" y="78" width="13" height="5" fill="#0E0E0E"/>
<path id="Rectangle 233" d="M13.6996 71L20.6996 78V83L13.6996 76V71Z" fill="black"/>
<rect id="Rectangle 231_2" x="35.6996" y="78" width="13" height="5" fill="#0E0E0E"/>
</g>
<g id="arm-2">
<path id="Rectangle 236" d="M13.6995 43L0.699526 63L8.69952 67L20.6995 47L13.6995 43Z" fill="#BCA3A3"/>
<path id="Rectangle 240" d="M20.6996 47L8.69958 67V70L20.6996 50V47Z" fill="#D3C0C0"/>
<path id="Rectangle 239" d="M0.699585 63L8.69958 67V70L0.699585 66V63Z" fill="#846E6E"/>
</g>
<path id="Rectangle 241" d="M46.5 17.5H51V22.5H46.5V17.5Z" fill="#6B81BB"/>
<path id="Rectangle 242" d="M29.5 17.5H34V22.5H29.5V17.5Z" fill="#6B81BB"/>
</g>
<defs>
<clipPath id="clip0_70_217">
<rect width="70" height="83" fill="white"/>
</clipPath>
</defs>
</svg>
