<svg width="24" height="24" viewBox="0 0 24 24" fill="none" xmlns="http://www.w3.org/2000/svg">
<g clip-path="url(#clip0_32_2)">
<circle cx="12" cy="12" r="11.5" fill="#0C1020" stroke="black"/>
<rect x="4.5" y="4.5" width="15" height="15" rx="2.5" fill="#20274A" stroke="black"/>
<path d="M12.0252 6.73544L10.2986 6.73544C10.2494 6.4523 10.1586 6.20147 10.0263 5.98296C9.89394 5.76136 9.72928 5.57363 9.53231 5.41975C9.33534 5.26586 9.11068 5.15045 8.85831 5.07351C8.60902 4.99349 8.33972 4.95348 8.05043 4.95348C7.53646 4.95348 7.08097 5.08274 6.68395 5.34126C6.28693 5.59671 5.97609 5.97218 5.75142 6.46768C5.52675 6.96011 5.41442 7.56179 5.41442 8.27273C5.41442 8.99598 5.52675 9.60535 5.75142 10.1009C5.97916 10.5933 6.29001 10.9657 6.68395 11.218C7.08096 11.4673 7.53492 11.592 8.04581 11.592C8.32895 11.592 8.59363 11.555 8.83984 11.4812C9.08913 11.4042 9.31226 11.2919 9.50923 11.1442C9.70928 10.9964 9.87701 10.8149 10.0124 10.5994C10.1509 10.384 10.2463 10.1378 10.2986 9.8608L12.0252 9.87003C11.9606 10.3194 11.8205 10.741 11.6051 11.1349C11.3928 11.5289 11.1142 11.8767 10.7695 12.1783C10.4248 12.4768 10.0217 12.7107 9.56001 12.88C9.09836 13.0462 8.58594 13.1293 8.02273 13.1293C7.19176 13.1293 6.45005 12.9369 5.79758 12.5522C5.14512 12.1675 4.63115 11.612 4.25568 10.8857C3.88021 10.1593 3.69247 9.28835 3.69247 8.27273C3.69247 7.25402 3.88175 6.38305 4.2603 5.6598C4.63885 4.93348 5.15436 4.37796 5.80682 3.99325C6.45928 3.60855 7.19792 3.41619 8.02273 3.41619C8.54901 3.41619 9.03835 3.49006 9.49077 3.63778C9.94318 3.78551 10.3464 4.00249 10.7003 4.28871C11.0542 4.57185 11.3451 4.91963 11.5728 5.33203C11.8036 5.74136 11.9544 6.20916 12.0252 6.73544Z" fill="#80C24A"/>
<path d="M12.0252 6.73544L12.0252 7.73544L13.1687 7.73544L13.0163 6.60214L12.0252 6.73544ZM10.2986 6.73544L9.31344 6.90678L9.45755 7.73544L10.2986 7.73544L10.2986 6.73544ZM10.0263 5.98296L9.16772 6.49571L9.17092 6.50099L10.0263 5.98296ZM9.53231 5.41975L10.148 4.63172L10.148 4.63172L9.53231 5.41975ZM8.85831 5.07351L8.55268 6.02566L8.55967 6.0279L8.56668 6.03004L8.85831 5.07351ZM6.68395 5.34126L7.22504 6.18224L7.22962 6.17926L6.68395 5.34126ZM5.75142 6.46768L6.6612 6.88277L6.66217 6.88064L5.75142 6.46768ZM5.75142 10.1009L4.84064 10.5138L4.84379 10.5206L5.75142 10.1009ZM6.68395 11.218L6.1445 12.0601L6.15218 12.0649L6.68395 11.218ZM8.83984 11.4812L9.1272 12.439L9.13476 12.4367L8.83984 11.4812ZM9.50923 11.1442L8.91517 10.3397L8.90923 10.3442L9.50923 11.1442ZM10.0124 10.5994L9.17121 10.0586L9.16579 10.0673L10.0124 10.5994ZM10.2986 9.8608L10.304 8.86081L9.47069 8.85635L9.31603 9.67519L10.2986 9.8608ZM12.0252 9.87003L13.015 10.0124L13.1785 8.87618L12.0306 8.87004L12.0252 9.87003ZM11.6051 11.1349L10.7277 10.6551L10.7249 10.6604L11.6051 11.1349ZM10.7695 12.1783L11.4242 12.9342L11.428 12.9308L10.7695 12.1783ZM9.56001 12.88L9.89874 13.8209L9.90427 13.8188L9.56001 12.88ZM5.79758 12.5522L6.30549 11.6908L6.30549 11.6908L5.79758 12.5522ZM4.25568 10.8857L3.36736 11.3449L3.36736 11.3449L4.25568 10.8857ZM4.2603 5.6598L5.14628 6.12353L5.14708 6.12198L4.2603 5.6598ZM5.80682 3.99325L5.29891 3.13184L5.29891 3.13184L5.80682 3.99325ZM9.49077 3.63778L9.80117 2.68718L9.80117 2.68718L9.49077 3.63778ZM10.7003 4.28871L10.0715 5.06628L10.0756 5.06958L10.7003 4.28871ZM11.5728 5.33203L10.6974 5.81547L10.7017 5.82323L11.5728 5.33203ZM12.0252 5.73544L10.2986 5.73544L10.2986 7.73544L12.0252 7.73544L12.0252 5.73544ZM11.2839 6.5641C11.2159 6.17356 11.086 5.80239 10.8816 5.46492L9.17092 6.50099C9.23121 6.60055 9.28287 6.73103 9.31344 6.90678L11.2839 6.5641ZM10.8848 5.47021C10.6913 5.14617 10.4454 4.86407 10.148 4.63172L8.91667 6.20777C9.0132 6.28319 9.09658 6.37656 9.16774 6.4957L10.8848 5.47021ZM10.148 4.63172C9.84895 4.39812 9.51314 4.22771 9.14993 4.11698L8.56668 6.03004C8.70821 6.07319 8.82174 6.1336 8.91667 6.20777L10.148 4.63172ZM9.16394 4.12136C8.80609 4.00649 8.43267 3.95348 8.05043 3.95348L8.05043 5.95348C8.24678 5.95348 8.41195 5.98049 8.55268 6.02566L9.16394 4.12136ZM8.05043 3.95348C7.35986 3.95348 6.71144 4.13004 6.13828 4.50327L7.22962 6.17926C7.45049 6.03544 7.71305 5.95348 8.05043 5.95348L8.05043 3.95348ZM6.14286 4.5003C5.56047 4.87502 5.1324 5.41132 4.84067 6.05473L6.66217 6.88064C6.81978 6.53304 7.01339 6.3184 7.22503 6.18223L6.14286 4.5003ZM4.84164 6.0526C4.54197 6.7094 4.41442 7.46145 4.41442 8.27273L6.41442 8.27273C6.41442 7.66213 6.51153 7.21082 6.6612 6.88277L4.84164 6.0526ZM4.41442 8.27273C4.41442 9.0938 4.54119 9.85331 4.84067 10.5138L6.66217 9.6879C6.51231 9.35739 6.41442 8.89815 6.41442 8.27273L4.41442 8.27273ZM4.84379 10.5206C5.13849 11.1578 5.56583 11.6893 6.14452 12.0601L7.22337 10.376C7.01419 10.242 6.81984 10.0287 6.65905 9.68108L4.84379 10.5206ZM6.15218 12.0649C6.72274 12.4232 7.36432 12.592 8.04581 12.592L8.04581 10.592C7.70551 10.592 7.43918 10.5115 7.21572 10.3712L6.15218 12.0649ZM8.04581 12.592C8.41649 12.592 8.77883 12.5435 9.12719 12.439L8.55249 10.5234C8.40843 10.5666 8.24141 10.592 8.04581 10.592L8.04581 12.592ZM9.13476 12.4367C9.48733 12.3279 9.8149 12.1649 10.1092 11.9442L8.90923 10.3442C8.80963 10.4189 8.69094 10.4806 8.54493 10.5257L9.13476 12.4367ZM10.1033 11.9486C10.4061 11.725 10.6588 11.4503 10.8591 11.1316L9.16579 10.0673C9.09526 10.1795 9.01242 10.2679 8.91519 10.3397L10.1033 11.9486ZM10.8536 11.1402C11.0683 10.8062 11.2075 10.437 11.2813 10.0464L9.31603 9.67519C9.28517 9.83855 9.23351 9.96183 9.17125 10.0587L10.8536 11.1402ZM10.2933 10.8608L12.0199 10.87L12.0306 8.87004L10.304 8.86081L10.2933 10.8608ZM11.0354 9.72766C10.9876 10.06 10.8852 10.3672 10.7277 10.6551L12.4825 11.6148C12.7559 11.1148 12.9336 10.5787 13.015 10.0124L11.0354 9.72766ZM10.7249 10.6604C10.5705 10.9467 10.3679 11.2009 10.111 11.4257L11.428 12.9308C11.8605 12.5524 12.215 12.1111 12.4854 11.6095L10.7249 10.6604ZM10.1149 11.4224C9.86864 11.6356 9.57265 11.8102 9.21576 11.9411L9.90427 13.8188C10.4707 13.6112 10.981 13.318 11.4242 12.9342L10.1149 11.4224ZM9.22129 11.9391C8.88307 12.0608 8.48728 12.1293 8.02273 12.1293L8.02273 14.1293C8.68459 14.1293 9.31366 14.0315 9.89873 13.8209L9.22129 11.9391ZM8.02273 12.1293C7.35254 12.1293 6.78938 11.9761 6.30549 11.6908L5.28968 13.4136C6.11071 13.8977 7.03098 14.1293 8.02273 14.1293L8.02273 12.1293ZM6.30549 11.6908C5.82806 11.4093 5.4402 10.9994 5.144 10.4264L3.36736 11.3449C3.82211 12.2246 4.46218 12.9257 5.28968 13.4136L6.30549 11.6908ZM5.144 10.4264C4.85756 9.87234 4.69247 9.16653 4.69247 8.27273L2.69247 8.27273C2.69247 9.41018 2.90285 10.4463 3.36736 11.3449L5.144 10.4264ZM4.69247 8.27273C4.69247 7.37627 4.85893 6.67252 5.14628 6.12353L3.37432 5.19608C2.90456 6.09358 2.69247 7.13178 2.69247 8.27273L4.69247 8.27273ZM5.14708 6.12198C5.44648 5.54752 5.83652 5.13663 6.31473 4.85466L5.29891 3.13184C4.47219 3.61929 3.83121 4.31943 3.37351 5.19762L5.14708 6.12198ZM6.31472 4.85466C6.79976 4.56867 7.36016 4.41619 8.02273 4.41619L8.02273 2.41619C7.03567 2.41619 6.11879 2.64842 5.29891 3.13184L6.31472 4.85466ZM8.02273 4.41619C8.45465 4.41619 8.83817 4.47665 9.18036 4.58839L9.80117 2.68718C9.23853 2.50346 8.64336 2.41619 8.02273 2.41619L8.02273 4.41619ZM9.18036 4.58839C9.52234 4.70006 9.81653 4.8601 10.0715 5.06627L11.3291 3.51115C10.8762 3.14487 10.364 2.87097 9.80117 2.68718L9.18036 4.58839ZM10.0756 5.06958C10.3233 5.26772 10.5304 5.51305 10.6974 5.81546L12.4482 4.84861C12.1597 4.3262 11.7852 3.87599 11.325 3.50784L10.0756 5.06958ZM10.7017 5.82323C10.8626 6.10851 10.9781 6.45204 11.0341 6.86874L13.0163 6.60214C12.9308 5.96629 12.7446 5.37421 12.4438 4.84084L10.7017 5.82323Z" fill="black"/>
<path d="M18.2663 13.5646C18.1894 13.3153 18.0832 13.0922 17.9478 12.8952C17.8155 12.6952 17.6554 12.5244 17.4677 12.3828C17.283 12.2412 17.0707 12.1351 16.8306 12.0643C16.5906 11.9904 16.329 11.9535 16.0458 11.9535C15.538 11.9535 15.0856 12.0812 14.6886 12.3366C14.2915 12.5921 13.9792 12.9676 13.7514 13.4631C13.5268 13.9555 13.4144 14.5556 13.4144 15.2635C13.4144 15.9775 13.5268 16.5823 13.7514 17.0778C13.9761 17.5733 14.2885 17.9503 14.6886 18.2088C15.0887 18.4643 15.5534 18.592 16.0827 18.592C16.5629 18.592 16.9783 18.4996 17.3292 18.315C17.6831 18.1303 17.9555 17.8687 18.1463 17.5302C18.3371 17.1886 18.4325 16.7885 18.4325 16.3299L18.8203 16.3899H16.2536V15.0511H20.0898V16.1868C20.0898 16.9962 19.9175 17.6964 19.5728 18.2873C19.2281 18.8782 18.7541 19.3337 18.1509 19.6538C17.5477 19.9708 16.8552 20.1293 16.0735 20.1293C15.2025 20.1293 14.4377 19.9338 13.7791 19.543C13.1236 19.149 12.6112 18.5904 12.2418 17.8672C11.8756 17.1409 11.6925 16.2791 11.6925 15.282C11.6925 14.5187 11.8002 13.837 12.0156 13.2369C12.2341 12.6367 12.5388 12.1274 12.9297 11.7088C13.3205 11.2872 13.7791 10.9671 14.3054 10.7486C14.8317 10.527 15.4041 10.4162 16.0227 10.4162C16.5459 10.4162 17.0337 10.4931 17.4862 10.647C17.9386 10.7978 18.3402 11.0133 18.6911 11.2933C19.045 11.5734 19.3358 11.9058 19.5636 12.2905C19.7913 12.6752 19.9406 13.0999 20.0114 13.5646H18.2663Z" fill="#80C24A"/>
<path d="M18.2663 13.5646L17.3108 13.8595L17.5284 14.5646H18.2663V13.5646ZM17.9478 12.8952L17.1138 13.447L17.1187 13.4544L17.1238 13.4618L17.9478 12.8952ZM17.4677 12.3828L16.8592 13.1764L16.8656 13.1812L17.4677 12.3828ZM16.8306 12.0643L16.5365 13.0201L16.5478 13.0234L16.8306 12.0643ZM14.6886 12.3366L15.2297 13.1776L15.2297 13.1776L14.6886 12.3366ZM13.7514 13.4631L12.8428 13.0454L12.8416 13.048L13.7514 13.4631ZM13.7514 17.0778L12.8407 17.4907L12.8407 17.4907L13.7514 17.0778ZM14.6886 18.2088L14.1458 19.0487L14.1504 19.0517L14.6886 18.2088ZM17.3292 18.315L16.8666 17.4284L16.8634 17.4301L17.3292 18.315ZM18.1463 17.5302L19.0175 18.0212L19.0193 18.0178L18.1463 17.5302ZM18.4325 16.3299L18.5855 15.3417L17.4325 15.1632V16.3299H18.4325ZM18.8203 16.3899V17.3899L18.9733 15.4017L18.8203 16.3899ZM16.2536 16.3899H15.2536V17.3899H16.2536V16.3899ZM16.2536 15.0511V14.0511H15.2536V15.0511H16.2536ZM20.0898 15.0511H21.0898V14.0511H20.0898V15.0511ZM19.5728 18.2873L20.4366 18.7912L20.4366 18.7912L19.5728 18.2873ZM18.1509 19.6538L18.6161 20.539L18.6196 20.5371L18.1509 19.6538ZM13.7791 19.543L13.264 20.4001L13.2688 20.4029L13.7791 19.543ZM12.2418 17.8672L11.3489 18.3174L11.3512 18.322L12.2418 17.8672ZM12.0156 13.2369L11.076 12.8947L11.0744 12.899L12.0156 13.2369ZM12.9297 11.7088L13.6606 12.3913L13.6631 12.3886L12.9297 11.7088ZM14.3054 10.7486L14.6889 11.6721L14.6935 11.6702L14.3054 10.7486ZM17.4862 10.647L17.1641 11.5938L17.1699 11.5957L17.4862 10.647ZM18.6911 11.2933L18.0672 12.0749L18.0705 12.0775L18.6911 11.2933ZM19.5636 12.2905L20.4241 11.7811L20.4241 11.7811L19.5636 12.2905ZM20.0114 13.5646V14.5646H21.1752L21 13.4141L20.0114 13.5646ZM19.2219 13.2697C19.1178 12.9325 18.9696 12.6163 18.7718 12.3287L17.1238 13.4618C17.1969 13.5681 17.261 13.6981 17.3108 13.8595L19.2219 13.2697ZM18.7818 12.3435C18.588 12.0506 18.3501 11.7958 18.0698 11.5844L16.8656 13.1812C16.9607 13.253 17.0429 13.3398 17.1138 13.447L18.7818 12.3435ZM18.0761 11.5892C17.7869 11.3674 17.4623 11.208 17.1134 11.1051L16.5478 13.0234C16.679 13.0621 16.7792 13.115 16.8593 13.1764L18.0761 11.5892ZM17.1247 11.1085C16.7781 11.0019 16.4161 10.9535 16.0458 10.9535V12.9535C16.2418 12.9535 16.403 12.979 16.5365 13.0201L17.1247 11.1085ZM16.0458 10.9535C15.3613 10.9535 14.7182 11.1285 14.1475 11.4957L15.2297 13.1776C15.453 13.0339 15.7147 12.9535 16.0458 12.9535V10.9535ZM14.1475 11.4957C13.5664 11.8695 13.1376 12.4041 12.8428 13.0454L14.66 13.8807C14.8208 13.531 15.0167 13.3146 15.2297 13.1776L14.1475 11.4957ZM12.8416 13.048C12.5422 13.7043 12.4144 14.4546 12.4144 15.2635H14.4144C14.4144 14.6567 14.5113 14.2067 14.6612 13.8782L12.8416 13.048ZM12.4144 15.2635C12.4144 16.0774 12.5419 16.8317 12.8407 17.4907L14.6622 16.6648C14.5117 16.3328 14.4144 15.8776 14.4144 15.2635H12.4144ZM12.8407 17.4907C13.133 18.1354 13.5627 18.6719 14.1459 19.0487L15.2313 17.3689C15.0143 17.2287 14.8192 17.0111 14.6622 16.6648L12.8407 17.4907ZM14.1504 19.0517C14.7294 19.4213 15.3854 19.592 16.0827 19.592V17.592C15.7214 17.592 15.448 17.5072 15.2267 17.3659L14.1504 19.0517ZM16.0827 19.592C16.6912 19.592 17.2732 19.4745 17.7949 19.1999L16.8634 17.4301C16.6835 17.5248 16.4345 17.592 16.0827 17.592V19.592ZM17.7918 19.2016C18.3123 18.93 18.7289 18.5332 19.0175 18.0212L17.2752 17.0392C17.1821 17.2043 17.0539 17.3307 16.8666 17.4284L17.7918 19.2016ZM19.0193 18.0178C19.3067 17.5034 19.4325 16.9297 19.4325 16.3299H17.4325C17.4325 16.6473 17.3675 16.8738 17.2733 17.0425L19.0193 18.0178ZM18.2796 17.3181L18.6674 17.3781L18.9733 15.4017L18.5855 15.3417L18.2796 17.3181ZM18.8203 15.3899H16.2536V17.3899H18.8203V15.3899ZM17.2536 16.3899V15.0511H15.2536V16.3899H17.2536ZM16.2536 16.0511H20.0898V14.0511H16.2536V16.0511ZM19.0898 15.0511V16.1868H21.0898V15.0511H19.0898ZM19.0898 16.1868C19.0898 16.8518 18.9494 17.3714 18.709 17.7834L20.4366 18.7912C20.8856 18.0214 21.0898 17.1406 21.0898 16.1868H19.0898ZM18.709 17.7834C18.4579 18.2138 18.1207 18.5378 17.6822 18.7704L18.6196 20.5371C19.3876 20.1296 19.9983 19.5426 20.4366 18.7912L18.709 17.7834ZM17.6857 18.7686C17.2458 18.9997 16.7172 19.1293 16.0735 19.1293V21.1293C16.9933 21.1293 17.8496 20.9418 18.6161 20.539L17.6857 18.7686ZM16.0735 19.1293C15.357 19.1293 14.7734 18.9702 14.2895 18.683L13.2688 20.4029C14.1021 20.8975 15.0481 21.1293 16.0735 21.1293V19.1293ZM14.2942 18.6858C13.8091 18.3943 13.4222 17.9798 13.1324 17.4124L11.3512 18.322C11.8001 19.2011 12.4381 19.9038 13.264 20.4001L14.2942 18.6858ZM13.1347 17.4169C12.853 16.8583 12.6925 16.1575 12.6925 15.282H10.6925C10.6925 16.4008 10.8981 17.4234 11.3489 18.3174L13.1347 17.4169ZM12.6925 15.282C12.6925 14.6118 12.7871 14.0475 12.9568 13.5747L11.0744 12.899C10.8133 13.6265 10.6925 14.4256 10.6925 15.282H12.6925ZM12.9553 13.579C13.1331 13.0906 13.3715 12.7009 13.6606 12.3913L12.1988 11.0263C11.7062 11.5539 11.3352 12.1828 11.076 12.8947L12.9553 13.579ZM13.6631 12.3886C13.9571 12.0715 14.2966 11.835 14.6889 11.6721L13.9219 9.82502C13.2616 10.0992 12.684 10.5029 12.1963 11.029L13.6631 12.3886ZM14.6935 11.6702C15.087 11.5045 15.5262 11.4162 16.0227 11.4162V9.41619C15.282 9.41619 14.5764 9.54945 13.9173 9.82694L14.6935 11.6702ZM16.0227 11.4162C16.4467 11.4162 16.8248 11.4783 17.1641 11.5938L17.8082 9.70028C17.2427 9.50794 16.6451 9.41619 16.0227 9.41619V11.4162ZM17.1699 11.5957C17.5178 11.7116 17.8139 11.8726 18.0672 12.0749L19.3149 10.5118C18.8665 10.1539 18.3594 9.884 17.8024 9.69833L17.1699 11.5957ZM18.0705 12.0775C18.3292 12.2822 18.5384 12.5218 18.7031 12.7999L20.4241 11.7811C20.1333 11.2898 19.7607 10.8646 19.3116 10.5091L18.0705 12.0775ZM18.7031 12.7999C18.8622 13.0687 18.9703 13.3706 19.0228 13.7152L21 13.4141C20.9109 12.8292 20.7205 12.2817 20.4241 11.7811L18.7031 12.7999ZM20.0114 12.5646H18.2663V14.5646H20.0114V12.5646Z" fill="black"/>
</g>
<defs>
<clipPath id="clip0_32_2">
<rect width="24" height="24" fill="white"/>
</clipPath>
</defs>
</svg>
